<svg width="512" height="512" viewBox="0 0 512 512" fill="none" xmlns="http://www.w3.org/2000/svg">
  <defs>
    <linearGradient id="g" x1="176" y1="140" x2="356" y2="372" gradientUnits="userSpaceOnUse">
      <stop stop-color="#37E7FF"/>
      <stop offset="1" stop-color="#8B5CFF"/>
    </linearGradient>
    <filter id="glow" x="88" y="72" width="336" height="376" filterUnits="userSpaceOnUse" color-interpolation-filters="sRGB">
      <feFlood flood-opacity="0" result="BackgroundImageFix"/>
      <feColorMatrix in="SourceAlpha" type="matrix" values="0 0 0 0 0 0 0 0 0 0 0 0 0 0 0 0 0 0 127 0" result="hardAlpha"/>
      <feOffset/>
      <feGaussianBlur stdDeviation="14"/>
      <feColorMatrix type="matrix" values="0 0 0 0 0.215686 0 0 0 0 0.905882 0 0 0 0 1 0 0 0 0.25 0"/>
      <feBlend mode="normal" in2="BackgroundImageFix" result="effect1_dropShadow"/>
      <feColorMatrix in="SourceAlpha" type="matrix" values="0 0 0 0 0 0 0 0 0 0 0 0 0 0 0 0 0 0 127 0" result="hardAlpha"/>
      <feOffset/>
      <feGaussianBlur stdDeviation="10"/>
      <feColorMatrix type="matrix" values="0 0 0 0 0.545098 0 0 0 0 0.360784 0 0 0 0 1 0 0 0 0.22 0"/>
      <feBlend mode="normal" in2="effect1_dropShadow" result="effect2_dropShadow"/>
      <feBlend mode="normal" in="SourceGraphic" in2="effect2_dropShadow" result="shape"/>
    </filter>
  </defs>

  <!-- transparent background by design -->
  <g filter="url(#glow)">
    <path
      d="M256 124C259.4 124 262.4 125.8 263.9 128.8L369.6 341.6C372.2 347 368.2 353.2 362.2 353.2H319.8C316.4 353.2 313.4 351.2 311.9 348.2L293.6 311.6C292.1 308.6 289 306.6 285.6 306.6H226.4C223 306.6 219.9 308.6 218.4 311.6L200.1 348.2C198.6 351.2 195.6 353.2 192.2 353.2H149.8C143.8 353.2 139.8 347 142.4 341.6L248.1 128.8C249.6 125.8 252.6 124 256 124Z"
      fill="url(#g)"/>
    <path d="M256 168L221 240.4H291L256 168Z" fill="#FFFFFF" fill-opacity="0.18"/>
    <path d="M208 277.6H304" stroke="#FFFFFF" stroke-opacity="0.22" stroke-width="14" stroke-linecap="round"/>
  </g>
</svg>
